<svg width="161" height="174" viewBox="0 0 161 174" fill="none" xmlns="http://www.w3.org/2000/svg">
<path fill-rule="evenodd" clip-rule="evenodd" d="M119.854 0H38C28.6112 0 21 7.61116 21 17V157C21 166.389 28.6112 174 38 174H144C153.389 174 161 166.389 161 157V41.789L119.854 0Z" fill="#F98786"/>
<path fill-rule="evenodd" clip-rule="evenodd" d="M161 41.8513H137C127.611 41.8513 120 34.2402 120 24.8513V0L161 41.6403V41.8513Z" fill="#E33147"/>
<rect y="51" width="95" height="87" rx="7" fill="#E33147"/>
<path d="M32.015 90.725C32.015 92.2883 31.6533 93.7117 30.93 94.995C30.2067 96.255 29.1333 97.2583 27.71 98.005C26.31 98.7517 24.6067 99.125 22.6 99.125H19.52V107H11.75V82.22H22.6C25.6333 82.22 27.955 82.99 29.565 84.53C31.1983 86.07 32.015 88.135 32.015 90.725ZM21.725 93C23.335 93 24.14 92.2417 24.14 90.725C24.14 89.2083 23.335 88.45 21.725 88.45H19.52V93H21.725ZM47.2545 82.22C49.8445 82.22 52.1078 82.745 54.0445 83.795C56.0045 84.845 57.5095 86.3033 58.5595 88.17C59.6095 90.0367 60.1345 92.16 60.1345 94.54C60.1345 96.8967 59.6095 99.02 58.5595 100.91C57.5095 102.8 56.0045 104.293 54.0445 105.39C52.1078 106.463 49.8445 107 47.2545 107H36.9295V82.22H47.2545ZM46.5545 100.07C48.3045 100.07 49.6928 99.5917 50.7195 98.635C51.7462 97.6783 52.2595 96.3133 52.2595 94.54C52.2595 92.7667 51.7462 91.4017 50.7195 90.445C49.6928 89.4883 48.3045 89.01 46.5545 89.01H44.6995V100.07H46.5545ZM82.8902 82.22V88.38H73.1602V91.81H80.1602V97.655H73.1602V107H65.3902V82.22H82.8902Z" fill="white"/>
</svg>
